<svg id="Layer_1" data-name="Layer 1" xmlns="http://www.w3.org/2000/svg" viewBox="0 0 244 244"><defs><style>.cls-1,.cls-2{fill:none;stroke:#fff;stroke-linecap:round;stroke-miterlimit:10;}.cls-1{stroke-width:4px;}.cls-2{stroke-width:8px;}</style></defs><title>15Artboard 1</title><path class="cls-1" d="M177,87.56v30.1a2.35,2.35,0,0,0,2.35,2.35H204a2.35,2.35,0,0,0,1.81-3.83l-24.7-30.1A2.35,2.35,0,0,0,177,87.56Z"/><line class="cls-1" x1="240" y1="139" x2="228" y2="139"/><circle class="cls-2" cx="103" cy="159" r="15"/><circle class="cls-2" cx="205" cy="159" r="15"/><line class="cls-2" x1="4" y1="139" x2="51" y2="139"/><line class="cls-2" x1="51" y1="114" x2="17" y2="114"/><line class="cls-2" x1="51" y1="90" x2="28" y2="90"/><path class="cls-2" d="M238.71,134.39,192.59,77a18.62,18.62,0,0,0-14.52-7H71.87A5.87,5.87,0,0,0,66,75.87v77.26A5.87,5.87,0,0,0,71.87,159H88a15,15,0,0,1,30,0h72a15,15,0,0,1,30,0h14.13a5.87,5.87,0,0,0,5.87-5.87V138.07A5.87,5.87,0,0,0,238.71,134.39Z"/></svg>