<svg id="Layer_1" data-name="Layer 1" xmlns="http://www.w3.org/2000/svg" viewBox="0 0 244 244"><defs><style>.cls-1,.cls-2{fill:none;stroke:#fff;stroke-linecap:round;stroke-miterlimit:10;}.cls-1{stroke-width:8px;}.cls-2{stroke-width:4px;}</style></defs><title>15Artboard 1</title><path class="cls-1" d="M179.34,129.41H64.66a8.36,8.36,0,0,0-8.28,7.2l-7.85,55.86A8.36,8.36,0,0,0,56.81,202H187.19a8.36,8.36,0,0,0,8.28-9.53l-7.85-55.86A8.36,8.36,0,0,0,179.34,129.41Z"/><line class="cls-2" x1="71.63" y1="184.22" x2="172.37" y2="184.22"/><line class="cls-2" x1="76.07" y1="164.96" x2="167.93" y2="164.96"/><line class="cls-2" x1="79.04" y1="148.67" x2="164.96" y2="148.67"/><polyline class="cls-1" points="184.22 67.19 162 67.19 162 42"/><polygon class="cls-1" points="162 42 59.78 42 59.78 83.48 184.22 83.48 184.22 67.19 162 42"/><circle class="cls-2" cx="186.94" cy="105.7" r="8.89"/><path class="cls-1" d="M203.67,83.48H40.33A18.33,18.33,0,0,0,22,101.81v53a5.74,5.74,0,0,0,5.74,5.74H53l3.36-23.91a8.36,8.36,0,0,1,8.28-7.2H179.34a8.36,8.36,0,0,1,8.28,7.2L191,160.52h25.27a5.74,5.74,0,0,0,5.74-5.74v-53A18.33,18.33,0,0,0,203.67,83.48Z"/></svg>