<svg id="Layer_1" data-name="Layer 1" xmlns="http://www.w3.org/2000/svg" viewBox="0 0 244 244"><defs><style>.cls-1,.cls-2,.cls-3,.cls-4{fill:none;stroke:#fff;stroke-linecap:round;}.cls-1,.cls-4{stroke-linejoin:round;}.cls-1,.cls-2{stroke-width:8px;}.cls-2,.cls-3{stroke-miterlimit:10;}.cls-3,.cls-4{stroke-width:4px;}.cls-5{fill:#fff;}</style></defs><title>15Artboard 1</title><path class="cls-1" d="M43.5,120.43H59.14a0,0,0,0,1,0,0v48.71a0,0,0,0,1,0,0H43.5a9.5,9.5,0,0,1-9.5-9.5V129.93A9.5,9.5,0,0,1,43.5,120.43Z"/><path class="cls-1" d="M194.36,120.43H210a0,0,0,0,1,0,0v48.71a0,0,0,0,1,0,0H194.36a9.5,9.5,0,0,1-9.5-9.5V129.93a9.5,9.5,0,0,1,9.5-9.5Z" transform="translate(394.86 289.57) rotate(-180)"/><path class="cls-2" d="M186.43,120.43V103.14a67.57,67.57,0,0,0-67.57-67.57h0a67.57,67.57,0,0,0-67.57,67.57v17.29"/><path class="cls-3" d="M187.74,169.14v9.69a23.31,23.31,0,0,1-23.31,23.31h-33"/><rect class="cls-3" x="103.14" y="194.29" width="26.71" height="14.14" rx="4.5" ry="4.5"/><path class="cls-4" d="M150,162.86H140.4a4.08,4.08,0,0,0-4.08,4l-.18,8.58L124.23,164a4.08,4.08,0,0,0-2.82-1.14H90.81a5,5,0,0,1-5-5V130.1a5,5,0,0,1,5-5H150a5,5,0,0,1,5,5v27.8A5,5,0,0,1,150,162.86Z"/><circle class="cls-5" cx="104.71" cy="144" r="3.14"/><circle class="cls-5" cx="120.43" cy="144" r="3.14"/><circle class="cls-5" cx="136.14" cy="144" r="3.14"/></svg>